<?xml version="1.0" encoding="UTF-8"?>
<svg version="1.1" xmlns="http://www.w3.org/2000/svg" width="1135" height="1126">
<path d="M0 0 C0.33 0.99 0.66 1.98 1 3 C-0.33680003 5.1922294 -1.69964991 7.15389829 -3.25 9.1875 C-4.19152738 10.46249191 -5.13158108 11.73857312 -6.0703125 13.015625 C-6.55918945 13.67626953 -7.04806641 14.33691406 -7.55175781 15.01757812 C-9.81155694 18.11089723 -11.96831639 21.27182264 -14.125 24.4375 C-18.67367868 31.08683522 -23.26810224 37.70338619 -27.875 44.3125 C-32.78120276 51.35401208 -37.66435793 58.40984188 -42.5 65.5 C-48.01706732 73.58928351 -53.60114796 81.63067278 -59.19921875 89.6640625 C-62.98416969 95.0971809 -66.75628278 100.53839274 -70.5 106 C-74.9274659 112.45910962 -79.39788888 118.88771908 -83.875 125.3125 C-88.78109826 132.35408569 -93.66435719 139.4098408 -98.5 146.5 C-104.01351846 154.58408007 -109.59425306 162.62011985 -115.18823242 170.64868164 C-120.82622943 178.74260623 -126.42322771 186.86381878 -132 195 C-138.99074301 205.19908093 -146.02953132 215.36352529 -153.09643555 225.51000977 C-157.34673127 231.61518149 -161.57583786 237.73406518 -165.78173828 243.86987305 C-169.78524635 249.70332348 -173.82998174 255.50778453 -177.875 261.3125 C-183.30568463 269.10700984 -188.6990333 276.92512915 -194.05053711 284.77416992 C-199.13212851 292.21695244 -204.28298162 299.61109286 -209.4453125 306.99804688 C-210.70491845 308.8031414 -211.96015149 310.61129727 -213.21044922 312.42285156 C-214.40295165 314.14018521 -215.61302493 315.84545067 -216.84033203 317.53808594 C-217.39962402 318.32731445 -217.95891602 319.11654297 -218.53515625 319.9296875 C-219.03539307 320.62046387 -219.53562988 321.31124023 -220.05102539 322.02294922 C-221.1741795 323.92891793 -221.1741795 323.92891793 -220.82080078 325.94091797 C-219.83102105 328.42390495 -218.6446819 330.68555729 -217.33203125 333.015625 C-216.77596191 334.00667236 -216.21989258 334.99771973 -215.64697266 336.01879883 C-215.04159668 337.08509521 -214.4362207 338.1513916 -213.8125 339.25 C-213.1839209 340.36463623 -212.5553418 341.47927246 -211.90771484 342.62768555 C-207.14344986 351.04978 -202.28856856 359.41779247 -197.39379883 367.76464844 C-192.87328893 375.47828157 -188.4251683 383.23149202 -184 391 C-179.04650554 399.69418163 -174.0562137 408.36497675 -169 417 C-163.27741203 426.77496642 -157.64156501 436.5978706 -152.03125 446.4375 C-147.54444263 454.30537405 -143.03235242 462.15825402 -138.5 470 C-133.62550892 478.43370447 -128.77773653 486.88215555 -123.95285034 495.34429932 C-118.65805058 504.63021095 -113.33242909 513.89677141 -107.9375 523.125 C-107.3803833 524.07930908 -106.8232666 525.03361816 -106.24926758 526.0168457 C-103.81504118 530.18585642 -101.37987489 534.3542792 -98.93505859 538.51708984 C-97.16732663 541.52767984 -95.40620204 544.5420553 -93.6489563 547.55877686 C-92.64417272 549.279663 -91.63257462 550.99656451 -90.62084961 552.71337891 C-90.01635986 553.75284668 -89.41187012 554.79231445 -88.7890625 555.86328125 C-88.24975098 556.78407471 -87.71043945 557.70486816 -87.15478516 558.65356445 C-86 561 -86 561 -86 564 C-386.63 564 -687.26 564 -997 564 C-993.79015125 560.79015125 -991.9852802 559.23093709 -988.16796875 557.22265625 C-986.74133911 556.46299561 -986.74133911 556.46299561 -985.28588867 555.68798828 C-984.26342041 555.15157715 -983.24095215 554.61516602 -982.1875 554.0625 C-979.99904853 552.89631501 -977.81157101 551.72830075 -975.625 550.55859375 C-973.96017578 549.66889893 -973.96017578 549.66889893 -972.26171875 548.76123047 C-967.36476584 546.11702251 -962.52382859 543.37811775 -957.6875 540.625 C-949.3986303 535.91510683 -941.08637578 531.25033239 -932.75 526.625 C-931.62247314 525.99940186 -930.49494629 525.37380371 -929.33325195 524.72924805 C-927.03838473 523.45646043 -924.74338086 522.18391916 -922.44824219 520.91162109 C-916.75586879 517.75590857 -911.06510384 514.5973027 -905.375 511.4375 C-904.25641602 510.81633301 -903.13783203 510.19516602 -901.98535156 509.55517578 C-893.45050062 504.81262959 -884.92997833 500.04485971 -876.41357422 495.26928711 C-868.78597141 490.99429857 -861.1455791 486.74274412 -853.5 482.5 C-840.64767961 475.36708182 -827.8205882 468.18975988 -815 461 C-802.13878004 453.78745391 -789.2701066 446.58932309 -776.375 439.4375 C-768.06300448 434.8270232 -759.76868776 430.18770326 -751.5 425.5 C-742.09287601 420.16689189 -732.6485077 414.90322938 -723.19189453 409.65844727 C-712.47527059 403.71367618 -701.78199034 397.72776111 -691.09277344 391.73388672 C-685.89629255 388.8206086 -680.69805304 385.91047173 -675.5 383 C-673.41665834 381.8333482 -671.33332501 380.66668154 -669.25 379.5 C-556.75000001 316.5 -556.75000001 316.5 -553.62451172 314.74975586 C-551.54277268 313.58396248 -549.46106691 312.41810968 -547.37939453 311.25219727 C-542.14694077 308.3216794 -536.91389914 305.39222084 -531.6796875 302.46484375 C-521.60795878 296.83065887 -511.54338657 291.18457751 -501.5 285.5 C-488.30355826 278.03078676 -475.06868279 270.630636 -461.83398438 263.22949219 C-446.86712862 254.8585917 -431.92299873 246.44882389 -417 238 C-413.20870223 235.85351405 -409.41706473 233.70763073 -405.625 231.5625 C-404.68052002 231.02802246 -403.73604004 230.49354492 -402.76293945 229.94287109 C-397.79639505 227.13523683 -392.82335767 224.33991364 -387.83984375 221.5625 C-377.47820141 215.78636331 -367.16178491 209.95399565 -356.9375 203.9375 C-347.99067498 198.67651486 -338.93599943 193.66088879 -329.79101562 188.75366211 C-320.64459086 183.83723447 -311.6396151 178.6934798 -302.640625 173.51367188 C-298.08590916 170.90279556 -293.51089237 168.32797374 -288.9375 165.75 C-280.91090468 161.22251034 -272.90344764 156.66246971 -264.90655518 152.08276367 C-255.31787071 146.59150157 -245.71010234 141.13740809 -236.0625 135.75 C-225.95953085 130.10814362 -215.89940435 124.39602888 -205.86132812 118.63964844 C-200.98311773 115.84425074 -196.10065746 113.05629125 -191.21865845 110.26751709 C-188.22763672 108.558845 -185.23687939 106.84971026 -182.24609375 105.140625 C-181.03499474 104.44856552 -179.82389448 103.75650823 -178.61279297 103.06445312 C-177.71545441 102.55168823 -177.71545441 102.55168823 -176.79998779 102.02856445 C-172.69486491 99.68277995 -168.58974202 97.33699544 -164.48461914 94.99121094 C-163.90986847 94.66278198 -163.3351178 94.33435303 -162.74295044 93.99597168 C-156.32863363 90.33064779 -149.91431681 86.66532389 -143.5 83 C-142.92251007 82.67000504 -142.34502014 82.34001007 -141.75003052 82.00001526 C-140.58326463 81.33329335 -139.41649624 80.66657582 -138.24972534 79.99986267 C-135.33455622 78.33407716 -132.41943053 76.66821573 -129.50439453 75.00219727 C-124.23657791 71.9916025 -118.9684423 68.981573 -113.69869995 65.97434998 C-99.58742447 57.92159691 -85.49301628 49.84047465 -71.42578125 41.7109375 C-67.13481521 39.2311909 -62.84042164 36.75754956 -58.54296875 34.2890625 C-45.01968598 26.5159252 -31.56863166 18.63164327 -18.1640625 10.65625 C-12.12994842 7.06850243 -6.06960339 3.52735402 0 0 Z " fill="#fff" transform="translate(1065,382)"/>
<path d="M0 0 C1.21185974 -0.00310181 2.42371948 -0.00620361 3.67230225 -0.00939941 C5.0535891 -0.00757641 6.43487573 -0.00557476 7.81616211 -0.00341797 C9.29974392 -0.00452657 10.78332552 -0.00596198 12.26690674 -0.00769043 C16.46981312 -0.01069654 20.6726823 -0.0060918 24.87558365 0.00041962 C27.61329398 0.00442347 30.35100224 0.00692914 33.0887146 0.00909424 C117.67866315 0.08461948 202.29021058 0.37810849 305.34350586 2.12939453 C307.09112906 2.1609325 307.09112906 2.1609325 308.87405777 2.1931076 C323.76074177 2.46275678 338.64637696 2.7627625 353.53100586 3.12939453 C354.62587311 3.15591347 354.62587311 3.15591347 355.74285889 3.18296814 C371.23872252 3.56300373 386.52196295 4.4744747 401.90600586 6.37939453 C403.27485428 6.54412766 403.27485428 6.54412766 404.6713562 6.71218872 C420.72502665 8.64633864 436.66911775 10.95796929 452.53100586 14.12939453 C454.14120605 14.4474707 454.14120605 14.4474707 455.78393555 14.77197266 C490.15190317 21.71394984 524.66544568 33.7605831 553.53100586 54.12939453 C554.19342285 54.59555176 554.85583984 55.06170898 555.53833008 55.54199219 C563.80929959 61.42766451 571.53935996 67.69944685 578.91772461 74.66845703 C581.17458851 76.79375488 583.47668989 78.81664089 585.84350586 80.81689453 C589.04755853 83.60730925 591.85109264 86.57506941 594.58569336 89.82470703 C595.97590969 91.47175048 597.40221426 93.08860378 598.85131836 94.68408203 C612.8099367 110.39273611 640.53100586 143.07296356 640.53100586 165.12939453 C639.91394775 165.46036133 639.29688965 165.79132813 638.66113281 166.13232422 C626.8721854 172.46421243 615.13440764 178.86429867 603.53564453 185.53881836 C596.76952289 189.43065547 589.9702413 193.25997133 583.15600586 197.06689453 C575.06223586 201.5902671 566.97633001 206.12680693 558.90600586 210.69189453 C557.96370117 211.22492188 557.02139648 211.75794922 556.05053711 212.30712891 C553.21047267 213.91416125 550.3706836 215.52167898 547.53100586 217.12939453 C543.73970809 219.27588048 539.94807059 221.4217638 536.15600586 223.56689453 C535.21152588 224.10137207 534.2670459 224.63584961 533.29394531 225.18652344 C528.32740091 227.9941577 523.35436353 230.78948089 518.37084961 233.56689453 C508.00920727 239.34303122 497.69279077 245.17539888 487.46850586 251.19189453 C478.53472692 256.44520821 469.49421044 261.45545351 460.36157227 266.35375977 C449.30359376 272.29561919 438.24201981 278.34184294 427.57397461 284.96533203 C425.53100586 286.12939453 425.53100586 286.12939453 423.53100586 286.12939453 C423.50913208 285.27897583 423.50913208 285.27897583 423.48681641 284.41137695 C422.68220032 256.15314616 419.71258623 228.05130579 398.53100586 207.12939453 C397.92901367 206.50548828 397.32702148 205.88158203 396.70678711 205.23876953 C374.66955174 184.0141871 338.1729749 182.27985035 309.48803711 181.56689453 C308.2621736 181.53512619 308.2621736 181.53512619 307.01154518 181.50271606 C286.7475672 180.98795432 266.48720679 181.05098206 246.21850586 181.12939453 C239.92673385 181.15336856 233.63498717 181.17352931 227.3431797 181.18533325 C224.89026202 181.19164361 222.43743305 181.20411438 219.98454285 181.21704102 C212.39654372 181.24241174 204.84159497 181.12068317 197.26464844 180.68798828 C196.57436648 180.64899918 195.88408453 180.61001007 195.17288494 180.56983948 C191.23812287 180.31887586 187.40754462 179.84579655 183.53100586 179.12939453 C183.4882188 179.69503931 183.44543175 180.26068409 183.40134811 180.84346962 C182.76308258 188.20395909 181.43865855 195.35500103 179.99682617 202.59570312 C179.7343301 203.93130941 179.47224462 205.26699644 179.21053219 206.6027565 C178.64587862 209.48005867 178.07830912 212.35676477 177.50850487 215.2330513 C176.5898525 219.87106481 175.67891797 224.51057665 174.76863098 229.15023804 C171.76002863 244.4728465 168.72630548 259.79041608 165.67776966 275.10512543 C164.11464611 282.95865542 162.55602861 290.81307687 161.00024533 298.66806412 C160.65299025 300.42122699 160.30557172 302.17435749 159.95799136 303.9274559 C155.60456866 325.8914366 151.42708857 347.86852269 147.68079245 369.94457209 C146.29290035 378.1168953 144.8471262 386.27908734 143.40116692 394.44130516 C142.38854339 400.1933747 141.41578981 405.94686198 140.52990723 411.71990967 C134.90792822 448.21454165 134.90792822 448.21454165 126.2590332 455.52001953 C121.50945548 458.61172278 116.60735621 460.59829548 111.20626831 462.26037598 C107.50558497 463.462487 104.51870964 465.21796019 101.18725586 467.22314453 C99.13555531 468.35925275 97.08347925 469.49468311 95.03100586 470.62939453 C86.6764131 475.25913161 78.33985144 479.91805139 70.03100586 484.62939453 C60.62250734 489.96339164 51.17682934 495.22807424 41.71850586 500.47314453 C34.14565265 504.67357678 26.58395289 508.8932805 19.03100586 513.12939453 C10.33526934 518.00644866 1.62511267 522.85675348 -7.09399414 527.69189453 C-15.40601684 532.3023217 -23.70030687 536.94169155 -31.96899414 541.62939453 C-41.37469607 546.96169644 -50.81780381 552.22425549 -60.27270508 557.46875 C-67.9294055 561.71652574 -75.578775 565.97704255 -83.21899414 570.25439453 C-84.23082764 570.82037354 -85.24266113 571.38635254 -86.28515625 571.96948242 C-91.5601296 574.92416063 -96.82381706 577.89730216 -102.07446289 580.89501953 C-103.66919434 581.80356689 -103.66919434 581.80356689 -105.29614258 582.73046875 C-107.32888603 583.88980265 -109.35958024 585.05273902 -111.38793945 586.21972656 C-112.28996094 586.73390137 -113.19198242 587.24807617 -114.12133789 587.77783203 C-114.91531982 588.23335449 -115.70930176 588.68887695 -116.52734375 589.15820312 C-118.46899414 590.12939453 -118.46899414 590.12939453 -120.46899414 590.12939453 C-117.14526616 571.13880267 -113.59678177 552.201249 -109.88904071 533.28188157 C-109.16604474 529.58968939 -108.44585406 525.89694989 -107.72535706 522.20426941 C-106.48111596 515.82890424 -105.23546752 509.45381555 -103.98883057 503.07891846 C-100.77539875 486.64567322 -97.57017108 470.21082599 -94.36469841 453.77602673 C-93.83803584 451.07590521 -93.31129109 448.37579974 -92.78453064 445.67569733 C-87.81663535 420.20974644 -82.86766172 394.74019908 -77.94165039 369.26611328 C-77.78972103 368.48046116 -77.63779167 367.69480904 -77.48125839 366.88534927 C-75.64391005 357.38380748 -73.80739472 347.88210476 -71.97114873 338.38034987 C-63.70097622 295.58614985 -55.41457371 252.79522393 -47.06665039 210.01611328 C-46.89150414 209.11856835 -46.71635788 208.22102341 -46.53590417 207.29628015 C-43.05841914 189.47657046 -39.57814288 171.65740621 -36.09604508 153.83859736 C-34.28501161 144.57103508 -32.47440586 135.30338933 -30.66430664 126.03564453 C-30.506285 125.22660856 -30.34826335 124.41757259 -30.18545318 123.58402038 C-26.00042244 102.15637541 -21.83571617 80.72502975 -17.71118164 59.28564453 C-17.39537234 57.64494775 -17.39537234 57.64494775 -17.07318306 55.97110558 C-15.19828988 46.23023623 -13.32561674 36.48896319 -11.4665184 26.74506569 C-10.84246847 23.47749302 -10.21558561 20.21046847 -9.58800125 16.943573 C-9.17499641 14.7876194 -8.76617607 12.63090115 -8.35751343 10.47412109 C-8.11916779 9.23476807 -7.88082214 7.99541504 -7.63525391 6.71850586 C-7.4319899 5.65207352 -7.22872589 4.58564117 -7.01930237 3.4868927 C-6.01043597 -0.83505009 -4.10888693 0.00313433 0 0 Z " fill="#FFF" transform="translate(412.468994140625,150.87060546875)"/>
</svg>
